# xmcd
# 
# Track frame offsets:
#     150
#     36077
#     78185
#     104392
#     134872
# 
# Disc length: 2201
# 
# Revision: 1
# Processed by: cddbd v1.5.2PL0 Copyright (c) Steve Scherf et al.
# Submitted via: BonkEnc v1.0.8
# 
DISCID=3d089705
DTITLE=Milt Jackson - Goodbye
DYEAR=1973
DGENRE=Jazz
TTITLE0=Detour Ahead
TTITLE1=Goodbye
TTITLE2=Old Devil Moon
TTITLE3=SKJ
TTITLE4=Opus de Funk
EXTD=
EXTT0=
EXTT1=
EXTT2=
EXTT3=
EXTT4=
PLAYORDER=
